<svg xmlns="http://www.w3.org/2000/svg" viewBox="0 0 128 128">
  <defs>
    <radialGradient id="bg" cx="50%" cy="50%" r="50%">
      <stop offset="0%" stop-color="#f0fdf4"/>
      <stop offset="100%" stop-color="#bbf7d0"/>
    </radialGradient>
  </defs>
  <circle cx="64" cy="64" r="60" fill="url(#bg)"/>
  <rect x="16" y="36" width="28" height="32" rx="7" fill="#10b981" stroke="#047857" stroke-width="2"/>
  <text x="30" y="58" font-size="22" text-anchor="middle" fill="white" font-weight="900" font-family="Georgia">B</text>
  <rect x="50" y="36" width="28" height="32" rx="7" fill="white" stroke="#10b981" stroke-width="2.5" stroke-dasharray="6 3"/>
  <text x="64" y="58" font-size="22" text-anchor="middle" fill="#d1fae5" font-weight="900" font-family="Georgia">?</text>
  <rect x="84" y="36" width="28" height="32" rx="7" fill="#10b981" stroke="#047857" stroke-width="2"/>
  <text x="98" y="58" font-size="22" text-anchor="middle" fill="white" font-weight="900" font-family="Georgia">O</text>
  <rect x="32" y="82" width="22" height="22" rx="6" fill="#fbbf24" stroke="#d97706" stroke-width="2"/>
  <text x="43" y="98" font-size="15" text-anchor="middle" fill="white" font-weight="900" font-family="Georgia">L</text>
  <rect x="58" y="82" width="22" height="22" rx="6" fill="#a855f7" stroke="#7e22ce" stroke-width="2"/>
  <text x="69" y="98" font-size="15" text-anchor="middle" fill="white" font-weight="900" font-family="Georgia">E</text>
  <rect x="84" y="82" width="22" height="22" rx="6" fill="#f87171" stroke="#dc2626" stroke-width="2"/>
  <text x="95" y="98" font-size="15" text-anchor="middle" fill="white" font-weight="900" font-family="Georgia">I</text>
  <path d="M69 82 L64 68" stroke="#a855f7" stroke-width="2.5" stroke-dasharray="4 2"/>
  <polygon points="64,68 60,75 68,75" fill="#a855f7" opacity="0.8"/>
  <circle cx="64" cy="52" r="20" fill="none" stroke="#22c55e" stroke-width="2.5" stroke-dasharray="6 3" opacity="0.6"/>
</svg>
