<svg xmlns="http://www.w3.org/2000/svg" viewBox="0 0 128 128">
  <defs>
    <radialGradient id="bg" cx="50%" cy="50%" r="50%">
      <stop offset="0%" stop-color="#f0f9ff"/>
      <stop offset="100%" stop-color="#bae6fd"/>
    </radialGradient>
  </defs>
  <circle cx="64" cy="64" r="60" fill="url(#bg)"/>
  <rect x="16" y="28" width="42" height="42" rx="6" fill="white" stroke="#0ea5e9" stroke-width="2.5"/>
  <polygon points="22,62 34,42 46,62" fill="#0ea5e9" opacity="0.8"/>
  <circle cx="47" cy="46" r="7" fill="#f59e0b" opacity="0.9"/>
  <rect x="22" y="54" width="12" height="8" rx="2" fill="#10b981" opacity="0.8"/>
  <rect x="70" y="28" width="42" height="42" rx="6" fill="white" stroke="#6366f1" stroke-width="2.5" stroke-dasharray="5 3"/>
  <polygon points="76,62 88,42 100,62" fill="#6366f1" opacity="0.5"/>
  <circle cx="101" cy="46" r="7" fill="#f59e0b" opacity="0.5"/>
  <rect x="76" y="54" width="12" height="8" rx="2" fill="#10b981" opacity="0.5"/>
  <path d="M58 49 L70 49" stroke="#6366f1" stroke-width="2.5" marker-end="url(#arr)" stroke-dasharray="none"/>
  <polygon points="70,46 74,49 70,52" fill="#6366f1"/>
  <rect x="30" y="78" width="68" height="22" rx="6" fill="white" stroke="#0ea5e9" stroke-width="2"/>
  <line x1="38" y1="85" x2="90" y2="85" stroke="#94a3b8" stroke-width="2" stroke-linecap="round"/>
  <line x1="38" y1="91" x2="75" y2="91" stroke="#94a3b8" stroke-width="2" stroke-linecap="round"/>
  <circle cx="88" cy="90" r="5" fill="#0ea5e9"/>
  <line x1="86" y1="88" x2="90" y2="92" stroke="white" stroke-width="1.5" stroke-linecap="round"/>
  <line x1="90" y1="88" x2="86" y2="92" stroke="white" stroke-width="1.5" stroke-linecap="round"/>
</svg>
