<svg xmlns="http://www.w3.org/2000/svg" viewBox="0 0 200 200" role="img" aria-label="Pip adolescente artista">
  <defs>
    <style>.skin{fill:#FFD9B3}.hair{fill:#0ea5e9}.cloth{fill:#0b84a5}.beret{fill:#6b7280}.sketch{fill:none;stroke:#111827;stroke-width:2}.shoe{fill:#0f172a}</style>
  </defs>
  <g transform="translate(0,6)">
    <circle cx="100" cy="50" r="28" class="skin" />
    <path d="M76 44c6-12 44-12 50 0v6c-14-6-36-6-50 0v-6z" class="hair" />
    <circle cx="91" cy="52" r="4" fill="#0b1320" />
    <circle cx="109" cy="52" r="4" fill="#0b1320" />

    <path d="M72 40c6-8 32-14 48-6" class="beret" />

    <rect x="68" y="82" width="64" height="44" rx="10" class="cloth" />
    <rect x="78" y="92" width="32" height="6" rx="3" fill="#fde68a" />

    <!-- Caderno e lápis -->
    <rect x="58" y="102" width="20" height="26" rx="4" fill="#fff" stroke="#111827" />
    <rect x="80" y="102" width="6" height="20" rx="2" fill="#ef4444" />

    <rect x="62" y="132" width="36" height="12" rx="6" class="shoe" />
    <rect x="102" y="132" width="36" height="12" rx="6" class="shoe" />
  </g>
</svg>
